<?xml version="1.0" encoding="utf-8"?>
<svg width="100" height="100" viewBox="0 0 100 100" fill="none" xmlns="http://www.w3.org/2000/svg">
  <g>
    <path d="M80 0C91.0472 0 100 8.9528 100 20L100 80C100 91.0472 91.0472 100 80 100L20 100C8.9528 100 0 91.0472 0 80L0 20C0 8.9528 8.9528 0 20 0L80 0Z" fill="#00BCD4" />
    <path d="M0.00109673 24.2493L0.000352859 45.1037Q0.000344202 45.347 0.0122816 45.5899Q0.0242189 45.8328 0.0480735 46.0749Q0.071928 46.3169 0.107642 46.5575Q0.143356 46.7981 0.190844 47.0367Q0.238332 47.2752 0.297478 47.5111Q0.356624 47.7471 0.427287 47.9798Q0.497949 48.2125 0.579957 48.4415Q0.661965 48.6705 0.755121 48.8952Q0.848276 49.1199 0.952354 49.3397Q1.05643 49.5595 1.17118 49.774Q1.28593 49.9884 1.41108 50.197Q1.53622 50.4056 1.67146 50.6077Q1.80669 50.8099 1.9517 51.0052Q2.0967 51.2004 2.25112 51.3884Q2.40553 51.5763 2.569 51.7564Q2.73246 51.9365 2.90457 52.1084Q3.07668 52.2802 3.25702 52.4434Q3.43737 52.6066 3.62551 52.7608Q3.81365 52.9149 4.00914 53.0597Q4.20462 53.2044 4.40698 53.3393Q4.60934 53.4743 4.81808 53.5991Q5.02682 53.724 5.24144 53.8384Q5.45606 53.9528 5.67605 54.0566Q5.89603 54.1604 6.12084 54.2532Q6.34566 54.346 6.57476 54.4277Q6.80386 54.5094 7.0367 54.5797Q7.26954 54.65 7.50555 54.7089Q7.74156 54.7677 7.98017 54.8148Q8.21878 54.8619 8.45942 54.8973Q8.70007 54.9327 8.94215 54.9562Q9.18424 54.9797 9.42719 54.9913Q9.67014 55.0029 9.91337 55.0025L32.9848 54.9685Q33.462 54.9678 33.9301 54.875Q34.3982 54.7822 34.8396 54.6008Q35.281 54.4194 35.6791 54.1562Q36.0772 53.893 36.417 53.5579L46.7805 43.3381Q46.9094 43.211 47.0286 43.0747Q47.1478 42.9384 47.2566 42.7936Q47.3654 42.6489 47.4632 42.4965Q47.5611 42.3442 47.6473 42.185Q47.7337 42.0258 47.808 41.8607Q47.8823 41.6955 47.9442 41.5254Q48.0061 41.3552 48.0553 41.181Q48.1045 41.0067 48.1407 40.8293Q48.1769 40.6519 48.1999 40.4723Q48.2228 40.2927 48.2325 40.1119Q48.2422 39.9311 48.2385 39.75Q48.2348 39.569 48.2177 39.3887Q48.2006 39.2085 48.1703 39.0299Q48.14 38.8514 48.0966 38.6757Q48.0531 38.4999 47.9969 38.3278Q47.9406 38.1557 47.8717 37.9882Q47.8029 37.8207 47.7219 37.6588Q47.6409 37.4968 47.5481 37.3413Q47.4554 37.1858 47.3514 37.0376Q47.2475 36.8893 47.1328 36.7492Q47.0182 36.609 46.8935 36.4777Q46.7688 36.3464 46.6348 36.2246Q46.5008 36.1029 46.3581 35.9913Q46.2155 35.8798 46.065 35.7791Q45.9145 35.6784 45.757 35.5891Q45.5995 35.4998 45.4358 35.4224Q45.2721 35.3449 45.1032 35.2798Q44.9342 35.2147 44.7609 35.1622Q44.5876 35.1097 44.4109 35.0702Q44.2342 35.0306 44.0551 35.0042Q43.876 34.9778 43.6954 34.9647Q43.5148 34.9516 43.3337 34.9519L25.296 34.979Q25.1745 34.9792 25.0531 34.9733Q24.9317 34.9675 24.8107 34.9556Q24.6898 34.9437 24.5695 34.9259Q24.4493 34.9081 24.3301 34.8843Q24.2109 34.8605 24.093 34.8308Q23.9752 34.8012 23.8589 34.7657Q23.7427 34.7302 23.6283 34.689Q23.514 34.6478 23.4018 34.601Q23.2896 34.5542 23.1799 34.5018Q23.0702 34.4495 22.9632 34.3918Q22.8563 34.3341 22.7523 34.2712Q22.6483 34.2082 22.5476 34.1402Q22.4468 34.0722 22.3496 33.9993Q22.2524 33.9263 22.1589 33.8487Q22.0654 33.771 21.9758 33.6888Q21.8863 33.6066 21.801 33.5201Q21.7156 33.4335 21.6347 33.3429Q21.5537 33.2522 21.4774 33.1576Q21.401 33.0631 21.3294 32.9648Q21.2579 32.8666 21.1913 32.7649Q21.1247 32.6632 21.0632 32.5584Q21.0017 32.4535 20.9455 32.3458Q20.8893 32.238 20.8385 32.1276Q20.7877 32.0172 20.7424 31.9044Q20.6972 31.7915 20.6576 31.6766Q20.618 31.5617 20.5841 31.445Q20.5503 31.3283 20.5222 31.21Q20.4942 31.0917 20.4721 30.9722Q20.45 30.8527 20.4338 30.7322Q20.4176 30.6118 20.4074 30.4906Q20.3973 30.3695 20.3931 30.248Q20.389 30.1266 20.3908 30.005L20.7085 9.3962Q20.7108 9.2522 20.7024 9.10842Q20.694 8.96463 20.6751 8.82186Q20.6562 8.67908 20.6269 8.53807Q20.5976 8.39706 20.558 8.25859Q20.5184 8.12012 20.4687 7.98492Q20.4191 7.84973 20.3596 7.71855Q20.3002 7.58737 20.2313 7.46091Q20.1623 7.33444 20.0843 7.21338Q20.0063 7.09232 19.9196 6.97732Q19.8329 6.86231 19.738 6.75398Q19.6431 6.64565 19.5405 6.54458Q19.4379 6.44351 19.3281 6.35025Q19.2184 6.25698 19.1021 6.17203Q18.9858 6.08708 18.8636 6.01089Q18.7413 5.9347 18.6138 5.8677Q18.4864 5.80069 18.3543 5.74323Q18.2222 5.68576 18.0863 5.63815Q17.9504 5.59053 17.8113 5.55303Q17.6723 5.51552 17.5308 5.48832Q17.3894 5.46113 17.2464 5.44439Q17.1033 5.42765 16.9594 5.42146Q16.8155 5.41527 16.6716 5.41967Q16.5276 5.42406 16.3844 5.43901Q16.2411 5.45395 16.0994 5.47938Q15.9576 5.50481 15.8181 5.54057Q15.6786 5.57634 15.5421 5.62225Q15.4056 5.66816 15.2728 5.72397Q15.14 5.77978 15.0117 5.84519Q14.8834 5.9106 14.7602 5.98525Q14.637 6.0599 14.5197 6.1434Q14.4023 6.22689 14.2914 6.31877Q14.1805 6.41066 14.0767 6.51044L3.04192 17.1116Q2.68231 17.4571 2.35923 17.837Q2.03616 18.2169 1.7529 18.6273Q1.46965 19.0377 1.22907 19.4745Q0.988501 19.9113 0.793048 20.3701Q0.597596 20.8289 0.449244 21.305Q0.300891 21.7811 0.201141 22.2697Q0.10139 22.7583 0.0512525 23.2545Q0.00111455 23.7507 0.00109673 24.2493Z" fill="#FFFFFF" fill-rule="evenodd" transform="translate(26.248 20.266)" />
    <path d="M11 0C17.076 1.90735e-06 22 4.92405 22 11L22 11C22 17.076 17.076 22 11 22L11 22C4.92405 22 0 17.076 0 11L0 11C0 4.92405 4.92405 0 11 0Z" fill="#FFC107" transform="matrix(1 0 -0 1 53 27)" />
  </g>
</svg>